<?xml version="1.0" encoding="UTF-8"?>
<svg version="1.1" xmlns="http://www.w3.org/2000/svg" width="500" height="500">
<path d="M0 0 C165 0 330 0 500 0 C500 165 500 330 500 500 C335 500 170 500 0 500 C0 335 0 170 0 0 Z " fill="#282844" transform="translate(0,0)"/>
<path d="M0 0 C64.63414634 0 64.63414634 0 77 10.5625 C77.99 11.7690625 77.99 11.7690625 79 13 C79.680625 13.7425 80.36125 14.485 81.0625 15.25 C85.97323386 22.22007387 87.63921753 28.54087776 87.4375 37 C87.44458984 37.83789062 87.45167969 38.67578125 87.45898438 39.5390625 C87.3832761 47.06330045 85.9375713 54.30163714 81.0625 60.25 C80.54558594 60.89453125 80.02867187 61.5390625 79.49609375 62.203125 C79.00238281 62.79609375 78.50867188 63.3890625 78 64 C77.21625 64.99 76.4325 65.98 75.625 67 C75.08875 67.66 74.5525 68.32 74 69 C74.804375 69.185625 75.60875 69.37125 76.4375 69.5625 C85.39980839 73.17887005 90.94240431 79.34838071 95 88 C98.92081754 98.69313873 98.01750197 111.4486959 94 122 C88.44018309 133.36070989 80.71977701 139.26403519 69.1875 143.95703125 C46.37812648 151.42039244 25.95112136 147 0 147 C0 98.49 0 49.98 0 0 Z " fill="#F5F5F5" transform="translate(220,179)"/>
<path d="M0 0 C0.66 0 1.32 0 2 0 C2.20157715 0.61520508 2.4031543 1.23041016 2.61083984 1.86425781 C3.52905198 4.66055921 4.45197451 7.45528393 5.375 10.25 C5.69210938 11.21808594 6.00921875 12.18617188 6.3359375 13.18359375 C6.6453125 14.11816406 6.9546875 15.05273438 7.2734375 16.015625 C7.69761963 17.30388184 7.69761963 17.30388184 8.13037109 18.61816406 C8.94437274 20.84764191 9.89231124 22.903455 11 25 C12.12898402 22.14735322 13.25327567 19.29300063 14.375 16.4375 C14.69210938 15.63763672 15.00921875 14.83777344 15.3359375 14.01367188 C17.14867992 9.38740217 18.72360018 4.80261547 20 0 C20.66 0 21.32 0 22 0 C28.75642214 13.87821687 35.49466285 27.75631998 41.875 41.8125 C45.11979994 48.95817463 48.44228445 56.0396512 52.00219727 63.03369141 C55.3336183 69.59389663 58.46554768 76.24721722 61.58813477 82.90893555 C63.21592986 86.36083121 64.82788679 89.71314465 66.79296875 92.98828125 C68 95 68 95 68 97 C65.89567026 97.00215387 63.79132127 97.00214168 61.68701172 96.99267578 C59.9097079 96.99752033 58.13225339 97.02932551 56.35595703 97.08935547 C49.71364122 97.24455539 42.97581224 97.18883851 37 94 C32.04525628 88.37735939 30.0058344 80.92252526 27.87158203 73.87011719 C26.93244059 70.77752707 25.82932476 67.789338 24.6550293 64.78051758 C23.93573685 62.93297125 23.25692673 61.06983485 22.578125 59.20703125 C20.58040864 53.79364837 18.37668873 48.46311024 16.1875 43.125 C15.78974365 42.15425537 15.3919873 41.18351074 14.98217773 40.18334961 C13.10272764 35.54138977 13.10272764 35.54138977 11 31 C7.48622863 38.49537157 4.35447867 46.06737697 1.4375 53.8125 C-2.35775885 63.79214043 -6.26399415 73.72057242 -10.25 83.625 C-13.87204437 92.62831487 -17.41596529 101.64976459 -20.77734375 110.75390625 C-22.71395565 115.89551804 -24.86790365 120.93627117 -27 126 C-28.98 130.95 -30.96 135.9 -33 141 C-43.89 141 -54.78 141 -66 141 C-64.78772561 137.36317682 -63.72996168 134.20639734 -62.1171875 130.8203125 C-61.75367188 130.05460938 -61.39015625 129.28890625 -61.015625 128.5 C-60.45101562 127.324375 -60.45101562 127.324375 -59.875 126.125 C-59.52179687 125.37992187 -59.16859375 124.63484375 -58.8046875 123.8671875 C-56.66145127 119.37234486 -54.45824875 114.91010278 -52.22093201 110.46157837 C-47.6088328 101.28985406 -43.18087651 92.03990749 -38.8125 82.75 C-38.06754299 81.16947783 -37.32250583 79.58899344 -36.57739258 78.00854492 C-31.54856332 67.33321079 -26.57274135 56.63409303 -21.62036133 45.9230957 C-17.51020886 37.05183814 -13.3035293 28.22926723 -9.04370117 19.42895508 C-5.93342125 12.99440272 -2.92882294 6.51917232 0 0 Z " fill="#F4F5F5" transform="translate(114,185)"/>
<path d="M0 0 C32.01 0 64.02 0 97 0 C97 6.27 97 12.54 97 19 C82.15 19 67.3 19 52 19 C52 61.24 52 103.48 52 147 C44.41 147 36.82 147 29 147 C29 104.76 29 62.52 29 19 C17.45 19 5.9 19 -6 19 C-5 12 -5 12 0 0 Z " fill="#F6F7F7" transform="translate(360,179)"/>
<path d="M0 0 C4.90875 -0.0825 9.8175 -0.165 14.875 -0.25 C16.40237793 -0.28641602 17.92975586 -0.32283203 19.50341797 -0.36035156 C28.83362839 -0.43589982 35.71228903 1.0112938 43.875 5.625 C49.58791327 12.01002071 50.68280998 19.60657122 50.37890625 27.94921875 C49.51401435 34.91293604 46.39093535 39.16723654 41.171875 43.67578125 C32.69040879 48.84703493 24.63875864 48.35782627 15 48.1875 C10.05 48.125625 5.1 48.06375 0 48 C0 32.16 0 16.32 0 0 Z " fill="#2C2944" transform="translate(243,259)"/>
<path d="M0 0 C6.6825 -0.12375 6.6825 -0.12375 13.5 -0.25 C15.58344727 -0.30462402 15.58344727 -0.30462402 17.70898438 -0.36035156 C24.9482301 -0.42509958 29.95528067 -0.1354814 36 4 C37.83984375 6.0703125 37.83984375 6.0703125 38.9375 8.125 C39.31777344 8.80820313 39.69804687 9.49140625 40.08984375 10.1953125 C43.04972387 16.06425936 43.0814122 23.10691609 41.31640625 29.4609375 C38.8034597 34.90391717 35.12250975 38.47317356 29.70825195 41.12060547 C26.5340085 42.15131176 23.94035889 42.22692283 20.60546875 42.1953125 C19.52160889 42.19031738 18.43774902 42.18532227 17.32104492 42.18017578 C15.9569751 42.16196777 14.59290527 42.14375977 13.1875 42.125 C8.835625 42.08375 4.48375 42.0425 0 42 C0 28.14 0 14.28 0 0 Z " fill="#2A2842" transform="translate(243,199)"/>
<path d="M0 0 C1.79124035 3.2449158 2.74209665 6.42991849 3.65625 10.015625 C3.95660156 11.18480469 4.25695312 12.35398437 4.56640625 13.55859375 C4.87449219 14.77675781 5.18257812 15.99492187 5.5 17.25 C5.80808594 18.45269531 6.11617187 19.65539062 6.43359375 20.89453125 C7.667038 25.71713947 8.88913356 30.54220484 10.08203125 35.375 C10.72302704 37.90625146 11.38962764 40.41239557 12.10546875 42.921875 C12.46253906 44.18515625 12.81960937 45.4484375 13.1875 46.75 C13.37763672 47.39582031 13.56777344 48.04164063 13.76367188 48.70703125 C15.45426629 54.78318977 15.45426629 54.78318977 14 58 C12.80964062 59.79110149 11.55128077 61.53778846 10.25 63.25 C7.70155271 66.65249683 5.29968008 70.03481878 3.125 73.6875 C2.42375 74.780625 1.7225 75.87375 1 77 C0.34 77 -0.32 77 -1 77 C-2.09741211 75.57885742 -2.09741211 75.57885742 -3.27734375 73.60546875 C-3.70853516 72.89712891 -4.13972656 72.18878906 -4.58398438 71.45898438 C-5.03064453 70.70939453 -5.47730469 69.95980469 -5.9375 69.1875 C-6.81778793 67.72035346 -7.70178299 66.2554235 -8.58984375 64.79296875 C-8.98034912 64.1383667 -9.37085449 63.48376465 -9.77319336 62.80932617 C-10.94750096 60.94191509 -10.94750096 60.94191509 -12.62329102 59.44262695 C-14 58 -14 58 -14.4375 55.125 C-14.28697895 51.61981494 -13.3081566 48.56113906 -12.23046875 45.234375 C-9.831445 37.59873805 -7.83888261 29.88000945 -5.875 22.125 C-5.35276377 20.07290741 -4.82959844 18.02105701 -4.30545044 15.9694519 C-3.83454456 14.12477162 -3.36616132 12.27944788 -2.89794922 10.43408203 C-1.98392635 6.93852855 -1.00546339 3.47014911 0 0 Z " fill="#F2F2F3" transform="translate(125,244)"/>
<path d="M0 0 C0.66 0.33 1.32 0.66 2 1 C0.50708935 4.80468819 -0.98625785 8.60920473 -2.47998047 12.41357422 C-2.98628045 13.70324259 -3.4924686 14.99295486 -3.99853516 16.28271484 C-4.73309165 18.15474298 -5.46807325 20.02660378 -6.203125 21.8984375 C-6.64301758 23.01911621 -7.08291016 24.13979492 -7.53613281 25.29443359 C-9.34314499 29.86862154 -11.17343404 34.43358509 -13 39 C-23.89 39 -34.78 39 -46 39 C-45.34 37.68 -44.68 36.36 -44 35 C-43.34 35 -42.68 35 -42 35 C-40.0294158 33.43743553 -38.13803954 31.84514223 -36.25 30.1875 C-31.63473035 26.20187854 -26.95219526 22.35079822 -22.125 18.625 C-14.49271927 12.71285294 -7.24215281 6.37999176 0 0 Z " fill="#ACB5BF" transform="translate(94,287)"/>
<path d="M0 0 C7.92 0 15.84 0 24 0 C21 11 21 11 17 20 C9.08 20 1.16 20 -7 20 C-4 10 -4 10 0 0 Z " fill="#EEEEEF" transform="translate(329,179)"/>
<path d="M0 0 C4.95 0 9.9 0 15 0 C15.66 2.31 16.32 4.62 17 7 C17.66 7.33 18.32 7.66 19 8 C18.34 8 17.68 8 17 8 C16.61714844 9.93166016 16.61714844 9.93166016 16.2265625 11.90234375 C15.09243844 17.00590204 13.33362238 21.72565815 11.375 26.5625 C11.05015625 27.38041016 10.7253125 28.19832031 10.390625 29.04101562 C9.59978204 31.02975306 8.80075781 33.01523399 8 35 C6.45414709 31.96853786 5.20374239 28.95831193 4.0625 25.75 C2.84345443 22.33028041 1.58622858 18.93790204 0.25 15.5625 C-1 12 -1 12 -1 8 C-1.66 7.67 -2.32 7.34 -3 7 C-2.01 4.69 -1.02 2.38 0 0 Z " fill="#183562" transform="translate(117,177)"/>
<path d="M0 0 C0.66 0 1.32 0 2 0 C2.2945105 0.92280762 2.2945105 0.92280762 2.5949707 1.86425781 C3.49285502 4.66213184 4.40253792 7.45603191 5.3125 10.25 C5.62123047 11.21808594 5.92996094 12.18617188 6.24804688 13.18359375 C6.55419922 14.11816406 6.86035156 15.05273438 7.17578125 16.015625 C7.45333252 16.87446289 7.73088379 17.73330078 8.0168457 18.61816406 C8.90854735 21.06604166 8.90854735 21.06604166 10.60229492 23.10839844 C12.55129254 25.74609861 12.21752207 27.80967626 12 31 C11.34 31.33 10.68 31.66 10 32 C9.27840576 33.64363134 8.60648579 35.31050386 8 37 C7.53851563 36.64808594 7.07703125 36.29617187 6.6015625 35.93359375 C1.16234345 31.81655641 -4.39245772 27.88391248 -10 24 C-7.49415892 15.59806226 -3.78974143 7.88058561 0 0 Z " fill="#ACB6C0" transform="translate(114,185)"/>
<path d="M0 0 C0.66 0.33 1.32 0.66 2 1 C0.515 2.485 0.515 2.485 -1 4 C12.365 4.495 12.365 4.495 26 5 C26 5.33 26 5.66 26 6 C15.44 6 4.88 6 -6 6 C-5.34 4.68 -4.68 3.36 -4 2 C-3.34 2 -2.68 2 -2 2 C-1.34 1.34 -0.68 0.68 0 0 Z " fill="#B7BCC8" transform="translate(54,320)"/>
<path d="M0 0 C2.3297964 3.64030688 2.3862557 6.75118727 2 11 C0.625 12.75 0.625 12.75 -1 14 C-1.66 14.99 -2.32 15.98 -3 17 C-3.23733045 11.42273453 -2.57846031 6.36906939 -1 1 C-0.67 0.67 -0.34 0.34 0 0 Z " fill="#E9EAEB" transform="translate(125,244)"/>
<path d="M0 0 C10.395 0.99 10.395 0.99 21 2 C16.1462885 4.42685575 13.83213346 3.79949324 8.65625 2.99609375 C5.43894722 3.00082508 4.32298161 3.85781649 2 6 C1.34 4.02 0.68 2.04 0 0 Z " fill="#243D67" transform="translate(152,279)"/>
<path d="M0 0 C0.66 0 1.32 0 2 0 C1.72510809 4.03174806 1.46508424 5.56894631 -1.5625 8.375 C-2.366875 8.91125 -3.17125 9.4475 -4 10 C-2.8905928 6.51329166 -1.73662334 3.22515763 0 0 Z " fill="#929DAC" transform="translate(114,185)"/>
<path d="M0 0 C0.95465783 2.16967689 1.14401212 3.56328793 0.3984375 5.82421875 C-0.35870385 7.5684743 -1.17609198 9.28627131 -2 11 C-3.20628008 8.66785852 -4.1654738 6.50357861 -5 4 C-3.68 4.33 -2.36 4.66 -1 5 C-0.67 3.35 -0.34 1.7 0 0 Z " fill="#2A3E5F" transform="translate(127,201)"/>
<path d="M0 0 C0.66 0 1.32 0 2 0 C2.66 1.98 3.32 3.96 4 6 C2.35 6.33 0.7 6.66 -1 7 C-0.67 4.69 -0.34 2.38 0 0 Z " fill="#C8CED5" transform="translate(134,185)"/>
<path d="M0 0 C1.42944945 2.35438733 2.08661261 3.48032433 1.625 6.25 C1.41875 6.8275 1.2125 7.405 1 8 C0.34 7.67 -0.32 7.34 -1 7 C-1.04254356 5.00045254 -1.04080783 2.99958364 -1 1 C-0.67 0.67 -0.34 0.34 0 0 Z " fill="#CCCCD2" transform="translate(125,244)"/>
<path d="M0 0 C2.50037734 2.17424117 3.43628586 3.73045798 4 7 C1.525 6.01 1.525 6.01 -1 5 C-0.67 3.35 -0.34 1.7 0 0 Z " fill="#3F3F54" transform="translate(124,215)"/>
</svg>
